<svg width="277" height="50" viewBox="0 0 277 50" fill="none" xmlns="http://www.w3.org/2000/svg">
<g filter="url(#filter0_d_17_62)">
<path d="M26.2333 18.624C28.2173 19.072 29.7853 20.064 30.9373 21.6C32.1213 23.104 32.7133 24.832 32.7133 26.784C32.7133 29.664 31.7213 31.92 29.7373 33.552C27.7533 35.184 24.9693 36 21.3853 36H4.63331V2.16H20.8573C24.3133 2.16 27.0173 2.928 28.9693 4.464C30.9533 6 31.9453 8.16 31.9453 10.944C31.9453 12.928 31.4173 14.592 30.3613 15.936C29.3373 17.248 27.9613 18.144 26.2333 18.624ZM14.0413 15.6H18.7933C21.1613 15.6 22.3453 14.624 22.3453 12.672C22.3453 10.656 21.1613 9.648 18.7933 9.648H14.0413V15.6ZM19.5133 28.416C21.8813 28.416 23.0653 27.424 23.0653 25.44C23.0653 24.416 22.7453 23.632 22.1053 23.088C21.4973 22.544 20.6173 22.272 19.4653 22.272H14.0413V28.416H19.5133ZM49.3644 36.336C46.6764 36.336 44.2604 35.776 42.1164 34.656C40.0044 33.536 38.3404 31.936 37.1244 29.856C35.9084 27.776 35.3004 25.328 35.3004 22.512C35.3004 19.728 35.9084 17.296 37.1244 15.216C38.3724 13.136 40.0524 11.536 42.1644 10.416C44.3084 9.296 46.7244 8.736 49.4124 8.736C52.1004 8.736 54.5004 9.296 56.6124 10.416C58.7564 11.536 60.4364 13.136 61.6524 15.216C62.9004 17.296 63.5244 19.728 63.5244 22.512C63.5244 25.296 62.9004 27.744 61.6524 29.856C60.4364 31.936 58.7564 33.536 56.6124 34.656C54.4684 35.776 52.0524 36.336 49.3644 36.336ZM49.3644 28.176C50.6764 28.176 51.7644 27.696 52.6284 26.736C53.5244 25.744 53.9724 24.336 53.9724 22.512C53.9724 20.688 53.5244 19.296 52.6284 18.336C51.7644 17.376 50.6924 16.896 49.4124 16.896C48.1324 16.896 47.0604 17.376 46.1964 18.336C45.3324 19.296 44.9004 20.688 44.9004 22.512C44.9004 24.368 45.3164 25.776 46.1484 26.736C46.9804 27.696 48.0524 28.176 49.3644 28.176ZM79.8801 36.336C77.1921 36.336 74.7761 35.776 72.6321 34.656C70.5201 33.536 68.8561 31.936 67.6401 29.856C66.4241 27.776 65.8161 25.328 65.8161 22.512C65.8161 19.728 66.4241 17.296 67.6401 15.216C68.8881 13.136 70.5681 11.536 72.6801 10.416C74.8241 9.296 77.2401 8.736 79.9281 8.736C82.6161 8.736 85.0161 9.296 87.1281 10.416C89.2721 11.536 90.9521 13.136 92.1681 15.216C93.4161 17.296 94.0401 19.728 94.0401 22.512C94.0401 25.296 93.4161 27.744 92.1681 29.856C90.9521 31.936 89.2721 33.536 87.1281 34.656C84.9841 35.776 82.5681 36.336 79.8801 36.336ZM79.8801 28.176C81.1921 28.176 82.2801 27.696 83.1441 26.736C84.0401 25.744 84.4881 24.336 84.4881 22.512C84.4881 20.688 84.0401 19.296 83.1441 18.336C82.2801 17.376 81.2081 16.896 79.9281 16.896C78.6481 16.896 77.5761 17.376 76.7121 18.336C75.8481 19.296 75.4161 20.688 75.4161 22.512C75.4161 24.368 75.8321 25.776 76.6641 26.736C77.4961 27.696 78.5681 28.176 79.8801 28.176ZM114.716 36L107.276 24.96V36H97.8677V0.48H107.276V19.632L114.716 9.072H125.996L115.388 22.608L126.188 36H114.716ZM152.13 41.664L148.386 36.048C147.33 36.24 146.258 36.336 145.17 36.336C142.002 36.336 139.09 35.6 136.434 34.128C133.778 32.624 131.666 30.56 130.098 27.936C128.562 25.28 127.794 22.288 127.794 18.96C127.794 15.632 128.562 12.656 130.098 10.032C131.666 7.376 133.778 5.312 136.434 3.84C139.09 2.368 142.002 1.632 145.17 1.632C148.37 1.632 151.282 2.368 153.906 3.84C156.562 5.312 158.658 7.376 160.194 10.032C161.73 12.656 162.498 15.632 162.498 18.96C162.498 21.744 161.938 24.32 160.818 26.688C159.698 29.024 158.162 30.976 156.21 32.544L163.362 41.664H152.13ZM137.394 18.96C137.394 21.616 138.082 23.728 139.458 25.296C140.834 26.832 142.738 27.6 145.17 27.6C147.57 27.6 149.458 26.816 150.834 25.248C152.242 23.68 152.946 21.584 152.946 18.96C152.946 16.272 152.242 14.16 150.834 12.624C149.458 11.056 147.57 10.272 145.17 10.272C142.738 10.272 140.834 11.056 139.458 12.624C138.082 14.16 137.394 16.272 137.394 18.96ZM194.326 9.072V36H184.87V32.16C184.07 33.376 182.966 34.368 181.558 35.136C180.15 35.872 178.534 36.24 176.71 36.24C173.574 36.24 171.094 35.216 169.27 33.168C167.478 31.088 166.582 28.272 166.582 24.72V9.072H175.942V23.52C175.942 25.056 176.342 26.272 177.142 27.168C177.974 28.032 179.062 28.464 180.406 28.464C181.782 28.464 182.87 28.032 183.67 27.168C184.47 26.272 184.87 25.056 184.87 23.52V9.072H194.326ZM225.408 22.224C225.408 22.96 225.36 23.696 225.264 24.432H207.456C207.552 25.904 207.952 27.008 208.656 27.744C209.392 28.448 210.32 28.8 211.44 28.8C213.008 28.8 214.128 28.096 214.8 26.688H224.832C224.416 28.544 223.6 30.208 222.384 31.68C221.2 33.12 219.696 34.256 217.872 35.088C216.048 35.92 214.032 36.336 211.824 36.336C209.168 36.336 206.8 35.776 204.72 34.656C202.672 33.536 201.056 31.936 199.872 29.856C198.72 27.776 198.144 25.328 198.144 22.512C198.144 19.696 198.72 17.264 199.872 15.216C201.024 13.136 202.624 11.536 204.672 10.416C206.752 9.296 209.136 8.736 211.824 8.736C214.48 8.736 216.832 9.28 218.88 10.368C220.928 11.456 222.528 13.024 223.68 15.072C224.832 17.088 225.408 19.472 225.408 22.224ZM215.808 19.872C215.808 18.72 215.424 17.824 214.656 17.184C213.888 16.512 212.928 16.176 211.776 16.176C210.624 16.176 209.68 16.496 208.944 17.136C208.208 17.744 207.728 18.656 207.504 19.872H215.808ZM240.73 36.336C238.298 36.336 236.122 35.936 234.202 35.136C232.314 34.304 230.81 33.184 229.69 31.776C228.602 30.336 227.994 28.72 227.866 26.928H236.986C237.114 27.792 237.514 28.464 238.186 28.944C238.858 29.424 239.69 29.664 240.682 29.664C241.45 29.664 242.058 29.504 242.506 29.184C242.954 28.864 243.178 28.448 243.178 27.936C243.178 27.264 242.81 26.768 242.074 26.448C241.338 26.128 240.122 25.776 238.426 25.392C236.506 25.008 234.906 24.576 233.626 24.096C232.346 23.616 231.226 22.832 230.266 21.744C229.338 20.656 228.874 19.184 228.874 17.328C228.874 15.728 229.306 14.288 230.17 13.008C231.034 11.696 232.298 10.656 233.962 9.888C235.658 9.12 237.69 8.736 240.058 8.736C243.578 8.736 246.346 9.6 248.362 11.328C250.378 13.056 251.546 15.328 251.866 18.144H243.37C243.21 17.28 242.826 16.624 242.218 16.176C241.642 15.696 240.858 15.456 239.866 15.456C239.098 15.456 238.506 15.6 238.09 15.888C237.706 16.176 237.514 16.576 237.514 17.088C237.514 17.728 237.882 18.224 238.618 18.576C239.354 18.896 240.538 19.232 242.17 19.584C244.122 20 245.738 20.464 247.018 20.976C248.33 21.488 249.466 22.32 250.426 23.472C251.418 24.592 251.914 26.128 251.914 28.08C251.914 29.648 251.45 31.056 250.522 32.304C249.626 33.552 248.33 34.544 246.634 35.28C244.97 35.984 243.002 36.336 240.73 36.336ZM272.428 27.984V36H268.348C261.468 36 258.028 32.592 258.028 25.776V16.896H254.716V9.072H258.028V2.544H267.484V9.072H272.38V16.896H267.484V25.92C267.484 26.656 267.644 27.184 267.964 27.504C268.316 27.824 268.892 27.984 269.692 27.984H272.428Z" fill="#B58237"/>
</g>
<defs>
<filter id="filter0_d_17_62" x="0.633301" y="0.47998" width="275.794" height="49.1841" filterUnits="userSpaceOnUse" color-interpolation-filters="sRGB">
<feFlood flood-opacity="0" result="BackgroundImageFix"/>
<feColorMatrix in="SourceAlpha" type="matrix" values="0 0 0 0 0 0 0 0 0 0 0 0 0 0 0 0 0 0 127 0" result="hardAlpha"/>
<feOffset dy="4"/>
<feGaussianBlur stdDeviation="2"/>
<feComposite in2="hardAlpha" operator="out"/>
<feColorMatrix type="matrix" values="0 0 0 0 0 0 0 0 0 0 0 0 0 0 0 0 0 0 0.25 0"/>
<feBlend mode="normal" in2="BackgroundImageFix" result="effect1_dropShadow_17_62"/>
<feBlend mode="normal" in="SourceGraphic" in2="effect1_dropShadow_17_62" result="shape"/>
</filter>
</defs>
</svg>
