<svg width="73" height="121" viewBox="0 0 73 121" fill="none" xmlns="http://www.w3.org/2000/svg">
<g filter="url(#filter0_d_17_56)">
<rect x="69" y="113" width="65" height="113" rx="20" transform="rotate(180 69 113)" fill="#606C38"/>
</g>
<path d="M39.1875 70.6585L53.1426 85.112C53.6926 85.6816 54 86.4425 54 87.2344V87.4393C54 88.1185 53.7302 88.7698 53.25 89.25C52.7698 89.7302 52.1185 90 51.4393 90H51C49.7183 90 48.488 89.4961 47.5745 88.5971L18.9255 60.4029C18.0135 59.5054 17.5 58.2795 17.5 57C17.5 56.0372 17.8709 55.1114 18.5357 54.415L48.1913 23.3472C48.7078 22.8061 49.4232 22.5 50.1712 22.5C50.7116 22.5 51.2399 22.66 51.6896 22.9597L52.8021 23.7014C53.5505 24.2003 54 25.0402 54 25.9397C54 26.621 53.7414 27.277 53.2765 27.7752L38.9544 43.1202C31.6935 50.8999 31.7959 63.0029 39.1875 70.6585Z" fill="#283618" stroke="#556B2F"/>
<defs>
<filter id="filter0_d_17_56" x="0" y="0" width="73" height="121" filterUnits="userSpaceOnUse" color-interpolation-filters="sRGB">
<feFlood flood-opacity="0" result="BackgroundImageFix"/>
<feColorMatrix in="SourceAlpha" type="matrix" values="0 0 0 0 0 0 0 0 0 0 0 0 0 0 0 0 0 0 127 0" result="hardAlpha"/>
<feOffset dy="4"/>
<feGaussianBlur stdDeviation="2"/>
<feComposite in2="hardAlpha" operator="out"/>
<feColorMatrix type="matrix" values="0 0 0 0 0 0 0 0 0 0 0 0 0 0 0 0 0 0 0.25 0"/>
<feBlend mode="normal" in2="BackgroundImageFix" result="effect1_dropShadow_17_56"/>
<feBlend mode="normal" in="SourceGraphic" in2="effect1_dropShadow_17_56" result="shape"/>
</filter>
</defs>
</svg>
