<svg width="73" height="121" viewBox="0 0 73 121" fill="none" xmlns="http://www.w3.org/2000/svg">
<g filter="url(#filter0_d_17_59)">
<rect width="65" height="113" rx="20" transform="matrix(1 0 0 -1 4 113)" fill="#606C38"/>
</g>
<path d="M33.8125 70.6585L19.8574 85.112C19.3074 85.6816 19 86.4425 19 87.2344V87.4393C19 88.1185 19.2698 88.7698 19.75 89.25C20.2302 89.7302 20.8815 90 21.5607 90H22C23.2817 90 24.512 89.4961 25.4255 88.5971L54.0745 60.4029C54.9865 59.5054 55.5 58.2795 55.5 57C55.5 56.0372 55.1291 55.1114 54.4643 54.415L24.8087 23.3472C24.2922 22.8061 23.5768 22.5 22.8288 22.5C22.2884 22.5 21.7601 22.66 21.3104 22.9597L20.1979 23.7014C19.4495 24.2003 19 25.0402 19 25.9397C19 26.621 19.2586 27.277 19.7235 27.7752L34.0456 43.1202C41.3065 50.8999 41.2041 63.0029 33.8125 70.6585Z" fill="#283618" stroke="#556B2F"/>
<defs>
<filter id="filter0_d_17_59" x="0" y="0" width="73" height="121" filterUnits="userSpaceOnUse" color-interpolation-filters="sRGB">
<feFlood flood-opacity="0" result="BackgroundImageFix"/>
<feColorMatrix in="SourceAlpha" type="matrix" values="0 0 0 0 0 0 0 0 0 0 0 0 0 0 0 0 0 0 127 0" result="hardAlpha"/>
<feOffset dy="4"/>
<feGaussianBlur stdDeviation="2"/>
<feComposite in2="hardAlpha" operator="out"/>
<feColorMatrix type="matrix" values="0 0 0 0 0 0 0 0 0 0 0 0 0 0 0 0 0 0 0.25 0"/>
<feBlend mode="normal" in2="BackgroundImageFix" result="effect1_dropShadow_17_59"/>
<feBlend mode="normal" in="SourceGraphic" in2="effect1_dropShadow_17_59" result="shape"/>
</filter>
</defs>
</svg>
