<svg width="95" height="12" viewBox="0 0 95 12" fill="none" xmlns="http://www.w3.org/2000/svg">
<path d="M47.5001 9.81749L43.671 12L44.5262 7.61734L41.3044 4.58359L45.6621 4.05749L47.5001 0L49.3381 4.05749L53.6957 4.58359L50.4741 7.61734L51.3292 12L47.5001 9.81749Z" fill="#A0A0A0"/>
<path d="M88.8043 9.81749L84.9752 12L85.8304 7.61734L82.6086 4.58359L86.9663 4.05749L88.8043 0L90.6423 4.05749L94.9999 4.58359L91.7783 7.61734L92.6334 12L88.8043 9.81749Z" fill="#A0A0A0"/>
<path d="M26.8478 9.81749L23.0186 12L23.8738 7.61734L20.6521 4.58359L25.0098 4.05749L26.8478 0L28.6857 4.05749L33.0434 4.58359L29.8217 7.61734L30.6769 12L26.8478 9.81749Z" fill="#A0A0A0"/>
<path d="M68.1522 9.81749L64.3231 12L65.1783 7.61734L61.9565 4.58359L66.3142 4.05749L68.1522 0L69.9902 4.05749L74.3478 4.58359L71.1262 7.61734L71.9813 12L68.1522 9.81749Z" fill="#A0A0A0"/>
<path d="M6.19568 9.81749L2.36654 12L3.22174 7.61734L0 4.58359L4.35768 4.05749L6.19568 0L8.03364 4.05749L12.3913 4.58359L9.16961 7.61734L10.0248 12L6.19568 9.81749Z" fill="#A0A0A0"/>
</svg>
